<svg xmlns="http://www.w3.org/2000/svg" data-name="Layer 1" viewBox="0 0 100 125" x="0px" y="0px"><title>Artboard 10</title><path d="M93.07715,38.41406c-.24707-.37451-1.94238-2.97314-2.47559-3.92431-.082-.148-.19824-.32764-.335-.5376a8.52461,8.52461,0,0,1-1.42676-3.26074c-.082-.47412-.13281-.95166-.18457-1.42432-.18261-1.6748-.37109-3.40674-1.72656-4.87256a7.80681,7.80681,0,0,0-2.27246-1.69385c-.28613-.82568-.96387-2.80175-1.68262-5.0332a8.32646,8.32646,0,0,1-.1289-4.2998l.1875-.59375-.7959-.873L81.668,12.021c-.70935.15-2.80054,2.37652-4.19922,4.73077a6.21162,6.21162,0,0,0-1.9502-1.62823,8.15377,8.15377,0,0,1-2.46484-3.38184l-.23828-.63232-1.23926-.16065-.36328.48145c-.63184.83837-1.32715,6.38867-.20215,8.78613a6.62082,6.62082,0,0,0,.618,1.03485,1.83414,1.83414,0,0,0-2.67566,1.35773l-.10839.73925-.54688-.31982a1.83456,1.83456,0,0,0-2.72363,1.23291l-.17383.88086-.67578-.377a1.83436,1.83436,0,0,0-2.70117,1.30078l-.13574.80615-.76758-.3999a1.83508,1.83508,0,0,0-2.65821,1.34326l-.11035.68945a9.24878,9.24878,0,0,0-5.61621-.94726c-6.334,1.0166-12.29492-.31153-17.5498-1.48242-3.98535-.88868-7.42481-1.65577-10.25391-1.20508A14.316,14.316,0,0,0,14.5437,32.6134a7.25668,7.25668,0,0,0-6.10913,7.04285,11.43038,11.43038,0,0,1-1.69531,5.22021,5.66485,5.66485,0,0,0,.334,6.11133,4.18079,4.18079,0,0,0,3.34082,1.62354,4.86717,4.86717,0,0,0,1.24024-.16406,1.00006,1.00006,0,0,0-.50782-1.93457,2.26746,2.26746,0,0,1-2.502-.7627A3.63123,3.63123,0,0,1,8.501,45.82373a13.35339,13.35339,0,0,0,1.93164-6.06836,5.198,5.198,0,0,1,3.25659-4.83423c-.06128.23639-.12012.47278-.16614.7121-.82971.615-2.34582,2.28473-2.22034,6.25055a21.44846,21.44846,0,0,0,.41016,3.4292,6.44488,6.44488,0,0,1,.15918,1.15283c-.05957.68066-.45215,1.06738-.94629,1.05762a.96933.96933,0,0,0-1.01562.98437.99985.99985,0,0,0,.98437,1.01563h.044a2.9434,2.9434,0,0,0,2.92578-2.88428,6.69238,6.69238,0,0,0-.18457-1.68945,19.66815,19.66815,0,0,1-.37891-3.12891,9.56641,9.56641,0,0,1,.15479-2.16162,15.85567,15.85567,0,0,0,1.92236,5.57275,5.7618,5.7618,0,0,1,.877,2.30616,18.24563,18.24563,0,0,1-.98242,7.06933A12.13253,12.13253,0,0,1,11.4834,59.144a2.8158,2.8158,0,0,0-1.34278,3.27051,1.082,1.082,0,0,0,.07618.17188A6.38614,6.38614,0,0,1,11,65l-.00391,4.48291c-.00781,6.20459-.00586,7.76172.00684,7.93311a3.36985,3.36985,0,0,0,1.51074,2.458c.17383.09668.36426.18848.5625.28272a3.72722,3.72722,0,0,1,1.18653.75732A2.46233,2.46233,0,0,1,15,82.46973,2.79259,2.79259,0,0,0,17.80566,85H21a1.99514,1.99514,0,0,0,2-1.98535V82a1.82391,1.82391,0,0,0-2-2H19.86914a.47523.47523,0,0,1-.21191-.03613c-1.11035-1.69239-2.334-3.60645-2.65723-4.18408V71.05713a5.67354,5.67354,0,0,1,.69238-.877,1.02435,1.02435,0,0,0,.08985-.10987,3.24334,3.24334,0,0,0,.38281-2.52685,7.11543,7.11543,0,0,1,1.66406-5.53369c.27564-.31061.54517-.60181.81445-.89374l-.12109,1.51239a3.90478,3.90478,0,0,0,.68945,2.5498,131.37807,131.37807,0,0,1,5.791,12.86084c.17773.81787,1.20605,1.20752,1.25,1.22364l.12891.04736a4.41544,4.41544,0,0,1,1.707.99805,3.76836,3.76836,0,0,1,.86914,1.26025,2.49558,2.49558,0,0,0,.06213.44989l.0022.01617A2.54453,2.54453,0,0,0,33.502,84H37a1.98239,1.98239,0,0,0,2-1.95947v-.97217A2.06246,2.06246,0,0,0,37,79H35.36426c-.02149,0-.04-.00049-.05469-.001l-3.457-4.35449L28.06934,65.125a30.0714,30.0714,0,0,1,.88574-6.50391,20.78313,20.78313,0,0,1,1.84949-3.32574,15.3858,15.3858,0,0,0,4.22961,1.67779c2.91125.62293,6.98193.13971,10.221-.564a4.55546,4.55546,0,0,1,.95678,2.35986,7.6103,7.6103,0,0,1-1.46386,4.26514l-.12012.15381-.05273.188a1.98253,1.98253,0,0,0,.02636,1.16748l.09571.29a6.92266,6.92266,0,0,1,.06347,4.17724l-1.90527,6.39649a1.83135,1.83135,0,0,0,.05078,1.28613,3.10692,3.10692,0,0,0,.63379.835,4.53289,4.53289,0,0,1,.96973,1.34473c.1416.34912.41406,1.17383.49023,1.45117v1.16894A2.55448,2.55448,0,0,0,47.4043,84h3.14062C51.57031,84,53,83.251,53,82.03174v-.98828A2.0491,2.0491,0,0,0,51,79h-.91406a1.8169,1.8169,0,0,1-.419-.32764l-.72558-3.57666c.19336-1.0205,1.56152-5.87109,1.93945-6.7334l.57129-.54394a3.57752,3.57752,0,0,0,.82519-1.18066l1.76807-3.059c.156.61846.32,1.22247.481,1.806l.126.45849a2.68449,2.68449,0,0,0,1.32618,1.82764,7.83036,7.83036,0,0,1,.02636,1.04394L56,77.57764a2.86344,2.86344,0,0,0,1.29785,2.70752,14.67472,14.67472,0,0,1,2.084,1.00244,2.2509,2.2509,0,0,1,.88476,1.17285V82.46A2.388,2.388,0,0,0,62.61133,85H66a2.00229,2.00229,0,0,0,2-2V82a2.00229,2.00229,0,0,0-2-2H65a1.68306,1.68306,0,0,1-.376-.05176L62,76.20361V68.99756a5.97955,5.97955,0,0,1,.35938-1.668l.1875-.34863A7.65616,7.65616,0,0,0,63,64V58c0-2.61426.45117-6.15674,2.60059-8.18994L76.30835,39.68a7.1653,7.1653,0,0,0,3.429,1.06464c.50586.33349,1.69629,1.12158,2.30079,1.54736a11.659,11.659,0,0,1,1.125,1.13233,16.35683,16.35683,0,0,0,2.93457,2.69873,3.28835,3.28835,0,0,0,1.75586.42968,7.08039,7.08039,0,0,0,4.581-1.79882A4.8178,4.8178,0,0,0,93.07715,38.41406ZM72.49023,14.8291a7.02665,7.02665,0,0,0,2.07715,2.0542,3.91756,3.91756,0,0,1,1.87012,2.02594c-.01746.05072-.03955.103-.05566.15326-.10425.32562-.22083.70618-.334,1.11432l-.93945-.59625a1.79761,1.79761,0,0,0-1.7207-.0503,1.84517,1.84517,0,0,0-.3501.23108,4.15288,4.15288,0,0,1-.21631-.39514A10.56854,10.56854,0,0,1,72.49023,14.8291ZM20.99707,82H21v1H17.80615a13.18815,13.18815,0,0,0,1.21253-1.16492A2.43769,2.43769,0,0,0,19.86523,82ZM37,82H33.55371A13.13577,13.13577,0,0,0,34.844,80.94543,2.52937,2.52937,0,0,0,35.36426,81L37,81.06836ZM27.09668,57.88232c-.7832,1.97266-1.01172,6.82227-1.03516,7.36866l-.00879.21386,3.94336,9.92383a1.96986,1.96986,0,0,0,.28809.49561l3.001,3.78082c-.204.17657-.457.37909-.74256.59271a5.7939,5.7939,0,0,0-1.10608-1.42676,6.39759,6.39759,0,0,0-2.36816-1.39941l-.1084-.03955a.79221.79221,0,0,1-.0791-.04395,126.32932,126.32932,0,0,0-6.03027-13.31738,1.89379,1.89379,0,0,1-.334-1.24219l.32117-4.01068a15.50934,15.50934,0,0,0,3.1759-4.32818c.2688-.653.54395-1.2887.85742-1.92615A24.88257,24.88257,0,0,0,29.10364,54.241,22.51143,22.51143,0,0,0,27.09668,57.88232ZM50,81l1,.04346v.79638A1.10646,1.10646,0,0,1,50.54492,82l-3.094.001c.23352-.23993.489-.48908.72973-.72266.265-.25726.49256-.48474.68531-.68738A2.11107,2.11107,0,0,0,50,81Zm.51367-15.30908-.05957.12158a1.58791,1.58791,0,0,1-.37988.55664l-.67383.64111A35.25626,35.25626,0,0,0,46.96973,75.334l-.02051.00391.73584,3.6264a.95454.95454,0,0,0-.12256.09528c-.1488.17413-.39148.41064-.65674.66754-.176-.64886-.53906-1.597-.54346-1.60846a6.37366,6.37366,0,0,0-1.36523-1.96045c-.085-.08984-.16309-.16748-.21289-.22021l1.89258-6.356a8.911,8.911,0,0,0-.08106-5.377l-.07226-.21778A9.3748,9.3748,0,0,0,48.21,58.69385a6.41015,6.41015,0,0,0-.89087-2.78809c.78516-.21637,1.46582-.43445,1.99439-.63379a4.46844,4.46844,0,0,1,3.85254.15723.56751.56751,0,0,1,.254.40308c-.00451.05987-.00329.116-.00891.17651l.00049.00452a16.92974,16.92974,0,0,0,.04175,4.59143ZM66,82v1H62.61133c-.03174,0-.04981-.01892-.07605-.02673a7.13931,7.13931,0,0,0,1.61291-1.08374A3.62813,3.62813,0,0,0,65,82ZM80.59961,38.91748l-.25781-.16894-.30762.00488a4.74839,4.74839,0,0,1-3.01856-1.0542,4.58735,4.58735,0,0,1-1.00976-2.95313,1,1,0,0,0-1.999-.06494,7.13551,7.13551,0,0,0,.91626,3.5553L64.22559,48.35693a8.65,8.65,0,0,0-1.57618,2.06372c-.06933-.81659-.12219-1.28155-.12793-1.33032a.99977.99977,0,0,0-1.98632.22949c.00293.03174.36621,3.22071.46484,8.15674.00049.02362.01257.04322.01465.06641C61.01184,57.69751,61,57.84253,61,58v6a7.14033,7.14033,0,0,1-.21484,2.0332l-.1875.34864A7.463,7.463,0,0,0,60,68.99951v7.2041a1.94994,1.94994,0,0,0,.39453,1.1836l2.2207,3.17492a5.23074,5.23074,0,0,1-.78991.52033,4.72316,4.72316,0,0,0-1.21594-1.374,14.51948,14.51948,0,0,0-2.46876-1.23877A1.81009,1.81009,0,0,1,58,77.57764V69l.00391-.23877c.02343-1.00586.05957-2.52637-1.11719-2.874-.03418-.01026-.18555-.13672-.30469-.57325l-.12793-.46142a20.93105,20.93105,0,0,1-1.05566-8.61572c.00122-.009-.001-.0174.00024-.02643l.00464-.016a12.21787,12.21787,0,0,0-.88574-5.96289,1.00014,1.00014,0,1,0-1.7832.90625,8.47906,8.47906,0,0,1,.58288,2.13812,7.07259,7.07259,0,0,0-4.71081.12506,27.20366,27.20366,0,0,1-3.22852.93317l-.00684.00164c-3.07568.715-7.1582,1.27234-9.91894.6814-3.62036-.77423-7.04724-3.79486-7.57739-4.278a18.3382,18.3382,0,0,1,1.7854-2.3158.99956.99956,0,1,0-1.48633-1.33691A20.74527,20.74527,0,0,0,24.16406,53.688a18.0738,18.0738,0,0,1-3.6289,4.61719c-.69629.73437-1.44043,1.519-2.20215,2.37744a9.09376,9.09376,0,0,0-2.14063,7.19384,1.61764,1.61764,0,0,1-.01562.9961C15,70.13428,15,70.73291,15,70.93164V76c0,.3335.005.50256,2.584,4.44519a10.64868,10.64868,0,0,1-.81372.79907,4.90735,4.90735,0,0,0-1.033-1.68176,5.49593,5.49593,0,0,0-1.79882-1.21c-.15918-.07617-.3125-.14844-.45215-.22608a1.4631,1.4631,0,0,1-.48828-.8413c-.01075-.30176-.00586-4.459-.002-7.79981L13,65a8.00483,8.00483,0,0,0-.97656-3.27637.92539.92539,0,0,1,.543-.89941,13.97541,13.97541,0,0,0,4.55957-5.4668,20.13351,20.13351,0,0,0,1.1289-7.81933,7.07573,7.07573,0,0,0-1.10449-3.2334,13.06523,13.06523,0,0,1-1.833-6.6211,9.5489,9.5489,0,0,1,.78064-3.72241l.01233-.02618a12.23134,12.23134,0,0,1,9.13574-7.0893c2.45508-.39258,5.72071.33789,9.50391,1.18164,5.16211,1.14991,11.58789,2.58106,18.30176,1.50489a7.656,7.656,0,0,1,5.42676,1.38525.99943.99943,0,0,0,1.61328-.62256l.30957-1.94189.7666.39941a1.83443,1.83443,0,0,0,2.6543-1.32568L63.957,26.627l.66992.37354A1.83506,1.83506,0,0,0,67.31934,25.75l.17285-.87549.55761.32569A1.83368,1.83368,0,0,0,70.78809,23.877l.11035-.749.69922.374a1.83484,1.83484,0,0,0,2.68554-1.4165l.07032-.61572.79589.50537a2.18064,2.18064,0,0,0,.494.23059,11.24138,11.24138,0,0,0-.03808,2.22052l-.14441-.04633a1.81767,1.81767,0,0,0-2.168.89209l-.13281.2544-.53223-.07276a1.82562,1.82562,0,0,0-1.81348.88086L70.5,26.86768l-.64941-.06739a1.838,1.838,0,0,0-1.834,1.03662l-.10351.21875-.34571-.063a1.8077,1.8077,0,0,0-1.86914.82763l-.36426.58252-.60546-.07471a1.83462,1.83462,0,0,0-1.8418.97706l-.498.96875a1.00018,1.00018,0,0,0,1.7793.91406l.44141-.85938.59472.07325a1.83134,1.83134,0,0,0,1.76563-.84327l.36035-.57617.36133.06543a1.82473,1.82473,0,0,0,1.97265-1.01709l.10742-.228.63672.06592A1.83487,1.83487,0,0,0,72.165,27.981l.3125-.52979.53613.07373a1.826,1.826,0,0,0,1.86035-.96142l.12207-.23243.80664.25879a.95853.95853,0,0,0,.20728.02344c.06348.227.11108.44708.19116.68115a1.00013,1.00013,0,0,0,1.89258-.64746,10.07778,10.07778,0,0,1,.19238-6.97461,13.48255,13.48255,0,0,1,2.34668-3.978,9.85759,9.85759,0,0,0,.43653,2.5874c.95312,2.9541,1.834,5.46631,1.84277,5.49121l.16309.45117.44824.16113A5.51905,5.51905,0,0,1,85.46,25.75244c.9082.981,1.04688,2.25537,1.207,3.731.05567.51367.11328,1.03222.20215,1.54736a9.77731,9.77731,0,0,0,1.49,3.64643c-1.71326.491-3.30542,1.8236-3.5437,3.19244-.07715.4458-.50684.83642-1.00488,1.28857a7.8605,7.8605,0,0,0-1.09644,1.17054C81.83789,39.73138,80.59961,38.91748,80.59961,38.91748Zm10.416,4.42725c-1.01171,1.0166-3.25976,1.46142-3.85156,1.08642a15.01585,15.01585,0,0,1-2.53222-2.36426c-.14014-.15142-.27222-.29412-.39893-.42907a4.97677,4.97677,0,0,1,.92236-.99964,4.30264,4.30264,0,0,0,1.63086-2.4248c.10742-.61383,1.43677-1.60864,2.689-1.717.78564,1.26935,1.92639,3.03186,2.03174,3.157A2.826,2.826,0,0,1,91.01562,43.34473Z"/><path d="M60.18457,32.61914a1.0002,1.0002,0,0,0-.3584,1.36768c.48828.835.8584,1.939-.93359,4.48-1.68653,2.39209-1.709,5.18261-.06738,8.29345a1.00035,1.00035,0,0,0,1.76953-.93359c-1.28028-2.42529-1.30274-4.456-.06739-6.20752,1.85547-2.63135,2.17188-4.67969,1.02539-6.64111A1.00032,1.00032,0,0,0,60.18457,32.61914Z"/><path d="M80.04688,20.4834a1.00488,1.00488,0,0,0-1.19922.74951l-.02637.11426a8.57931,8.57931,0,0,0-.29,3.51025.9998.9998,0,1,0,1.97266-.32715,6.8281,6.8281,0,0,1,.26562-2.73193l.02735-.11523A1.00113,1.00113,0,0,0,80.04688,20.4834Z"/><path d="M90.67188,39.80811a2.812,2.812,0,0,0-3.40333,2.49316,1.00091,1.00091,0,0,0,.97852,1.02148h.02148a1.00007,1.00007,0,0,0,1-.97851.76252.76252,0,0,1,.31836-.44336.68626.68626,0,0,1,.56543-.16113,1.00014,1.00014,0,1,0,.51954-1.93164Z"/><path d="M25.26172,29.16016c-1.627.10546-5.458,1.71582-6.83789,4.03027a.9996.9996,0,1,0,1.71679,1.02441c.958-1.605,4.06153-2.98144,5.25-3.05859a1.00012,1.00012,0,1,0-.1289-1.99609Z"/><path d="M29.665,29.02686c-.43945-.062-1.2666-.08643-1.35938-.08887a1.03223,1.03223,0,0,0-1.02734.97217A1.00029,1.00029,0,0,0,28.251,30.937c.30664.00879.88574.03516,1.13281.07031a1.00017,1.00017,0,1,0,.28125-1.98046Z"/><path d="M21.93457,51.32764c-1.20215.45507-2.38672,2.37256-2.97852,3.96191a1.00023,1.00023,0,1,0,1.875.69727,6.153,6.153,0,0,1,1.81055-2.78809,1.00011,1.00011,0,1,0-.707-1.87109Z"/><ellipse cx="82.5639" cy="30.52411" rx="1.46847" ry="1.47793" transform="translate(-0.10299 0.28004) rotate(-0.19421)"/><text x="0" y="115" fill="#000000" font-size="5px" font-weight="bold" font-family="'Helvetica Neue', Helvetica, Arial-Unicode, Arial, Sans-serif">Created by Khalay Chio</text><text x="0" y="120" fill="#000000" font-size="5px" font-weight="bold" font-family="'Helvetica Neue', Helvetica, Arial-Unicode, Arial, Sans-serif">from the Noun Project</text></svg>