# This file uses centimeters as units for non-parametric coordinates.

mtllib traffic_cone.mtl
g default
v 5.647777 -11.971047 -3.260746
v 3.260746 -11.971047 -5.647777
v 0.000000 -11.971047 -6.521492
v -3.260746 -11.971047 -5.647777
v -5.647777 -11.971047 -3.260746
v -6.521492 -11.971047 0.000000
v -5.647777 -11.971047 3.260746
v -3.260746 -11.971047 5.647777
v 0.000000 -11.971047 6.521492
v 3.260746 -11.971047 5.647777
v 5.647777 -11.971047 3.260746
v 6.521492 -11.971047 0.000000
v 1.972942 13.426668 -1.139078
v 1.139078 13.426668 -1.972942
v 0.000000 13.426668 -2.278157
v -1.139078 13.426668 -1.972942
v -1.972942 13.426668 -1.139078
v -2.278157 13.426668 0.000000
v -1.972942 13.426668 1.139078
v -1.139078 13.426668 1.972942
v 0.000000 13.426668 2.278157
v 1.139078 13.426668 1.972942
v 1.972942 13.426668 1.139078
v 2.278157 13.426668 0.000000
v 0.000000 12.675435 0.000000
v 9.074511 -11.971047 -5.239174
v 5.239174 -11.971047 -9.074511
v 0.000000 -11.971047 -10.478349
v -5.239174 -11.971047 -9.074511
v -9.074511 -11.971047 -5.239174
v -10.478349 -11.971047 0.000000
v -9.074511 -11.971047 5.239174
v -5.239174 -11.971047 9.074511
v 0.000000 -11.971047 10.478349
v 5.239174 -11.971047 9.074511
v 9.074511 -11.971047 5.239174
v 10.478349 -11.971047 0.000000
v 9.074511 -13.426671 -5.239174
v 5.239174 -13.426671 -9.074511
v 0.000000 -13.426671 -10.478349
v -5.239174 -13.426671 -9.074511
v -9.074511 -13.426671 -5.239174
v -10.478349 -13.426671 0.000000
v -9.074511 -13.426671 5.239174
v -5.239174 -13.426671 9.074511
v 0.000000 -13.426671 10.478349
v 5.239174 -13.426671 9.074511
v 9.074511 -13.426671 5.239174
v 10.478349 -13.426671 0.000000
vt 0.004651 0.388329
vt 0.069181 0.388329
vt 0.133711 0.388329
vt 0.198241 0.388329
vt 0.262772 0.388329
vt 0.327302 0.388329
vt 0.391832 0.388329
vt 0.456362 0.388329
vt 0.520893 0.388329
vt 0.585423 0.388329
vt 0.649953 0.388329
vt 0.714483 0.388329
vt 0.779013 0.388329
vt 0.004651 0.994484
vt 0.069181 0.994484
vt 0.133711 0.994484
vt 0.198241 0.994484
vt 0.262772 0.994484
vt 0.327302 0.994484
vt 0.391832 0.994484
vt 0.456362 0.994484
vt 0.520893 0.994484
vt 0.585423 0.994484
vt 0.649953 0.994484
vt 0.714483 0.994484
vt 0.779013 0.994484
vt 0.983156 0.832347
vt 0.943556 0.792746
vt 0.889460 0.778251
vt 0.835364 0.792746
vt 0.795764 0.832347
vt 0.781269 0.886443
vt 0.795764 0.940538
vt 0.835364 0.980139
vt 0.889460 0.994634
vt 0.943556 0.980139
vt 0.983156 0.940538
vt 0.997651 0.886443
vt 0.889460 0.882115
vt 0.250567 0.295727
vt 0.292958 0.253336
vt 0.353812 0.288470
vt 0.285701 0.356581
vt 0.192661 0.311243
vt 0.192661 0.381511
vt 0.134754 0.295727
vt 0.099620 0.356581
vt 0.092364 0.253336
vt 0.031510 0.288470
vt 0.076848 0.195430
vt 0.006580 0.195430
vt 0.092364 0.137523
vt 0.031510 0.102389
vt 0.134754 0.095133
vt 0.099620 0.034279
vt 0.192661 0.079617
vt 0.192661 0.009349
vt 0.250567 0.095133
vt 0.285701 0.034279
vt 0.292958 0.137523
vt 0.353812 0.102389
vt 0.308474 0.195430
vt 0.378742 0.195430
vt 0.993723 0.138522
vt 0.958615 0.138521
vt 0.993722 0.797484
vt 0.958615 0.797484
vt 0.993723 0.731587
vt 0.958616 0.731587
vt 0.993723 0.665691
vt 0.958615 0.665691
vt 0.993723 0.599795
vt 0.958615 0.599795
vt 0.993723 0.533899
vt 0.958615 0.533899
vt 0.993723 0.468003
vt 0.958616 0.468003
vt 0.993723 0.402106
vt 0.958615 0.402106
vt 0.993723 0.336210
vt 0.958615 0.336210
vt 0.993723 0.270314
vt 0.958615 0.270314
vt 0.993723 0.204417
vt 0.958615 0.204417
vt 0.993723 0.006729
vt 0.993723 0.072625
vt 0.958615 0.072625
vt 0.958615 0.006729
vn 0.854186 0.164791 -0.493164
vn 0.493164 0.164791 -0.854186
vn 0.493164 0.164791 -0.854186
vn 0.854186 0.164791 -0.493164
vn 0.000000 0.164791 -0.986328
vn 0.000000 0.164791 -0.986328
vn -0.493164 0.164791 -0.854186
vn -0.493164 0.164791 -0.854186
vn -0.854186 0.164791 -0.493164
vn -0.854186 0.164791 -0.493164
vn -0.986328 0.164791 0.000000
vn -0.986328 0.164791 0.000000
vn -0.854186 0.164791 0.493164
vn -0.854186 0.164791 0.493164
vn -0.493164 0.164791 0.854186
vn -0.493164 0.164791 0.854186
vn 0.000000 0.164791 0.986328
vn 0.000000 0.164791 0.986328
vn 0.493164 0.164791 0.854186
vn 0.493164 0.164791 0.854186
vn 0.854186 0.164791 0.493164
vn 0.854186 0.164791 0.493164
vn 0.986328 0.164791 0.000000
vn 0.986328 0.164791 0.000000
vn -0.271211 0.949698 0.156584
vn -0.156584 0.949698 0.271210
vn 0.000000 1.000000 0.000000
vn 0.000000 0.949698 0.313167
vn 0.156584 0.949698 0.271210
vn 0.271211 0.949698 0.156584
vn 0.313167 0.949698 0.000000
vn 0.271211 0.949698 -0.156584
vn 0.156584 0.949698 -0.271210
vn 0.000000 0.949698 -0.313167
vn -0.156584 0.949698 -0.271210
vn -0.271211 0.949698 -0.156584
vn -0.313167 0.949698 0.000000
vn 0.000000 1.000000 0.000000
vn 0.000000 1.000000 0.000000
vn 0.000000 1.000000 0.000000
vn 0.000000 1.000000 0.000000
vn 0.000000 1.000000 0.000000
vn 0.000000 1.000000 0.000000
vn 0.000000 1.000000 0.000000
vn 0.000000 1.000000 0.000000
vn 0.000000 1.000000 0.000000
vn 0.000000 1.000000 0.000000
vn 0.000000 1.000000 0.000000
vn 0.000000 1.000000 0.000000
vn 0.000000 1.000000 -0.000000
vn 0.000000 1.000000 -0.000000
vn 0.000000 1.000000 -0.000000
vn 0.000000 1.000000 -0.000000
vn 0.000000 1.000000 -0.000000
vn 0.000000 1.000000 -0.000000
vn 0.000000 1.000000 -0.000000
vn 0.000000 1.000000 -0.000000
vn 0.000000 1.000000 -0.000000
vn 0.000000 1.000000 -0.000000
vn 0.000000 1.000000 -0.000000
vn 0.000000 1.000000 -0.000000
vn 0.500000 0.000000 -0.866025
vn 0.866025 0.000000 -0.500000
vn 0.866025 0.000000 -0.500000
vn 0.500000 0.000000 -0.866025
vn 0.000000 0.000000 -1.000000
vn 0.000000 0.000000 -1.000000
vn -0.500000 0.000000 -0.866025
vn -0.500000 0.000000 -0.866025
vn -0.866025 0.000000 -0.500000
vn -0.866025 0.000000 -0.500000
vn -1.000000 0.000000 0.000000
vn -1.000000 0.000000 0.000000
vn -0.866025 0.000000 0.500000
vn -0.866025 0.000000 0.500000
vn -0.500000 0.000000 0.866025
vn -0.500000 0.000000 0.866025
vn 0.000000 0.000000 1.000000
vn 0.000000 0.000000 1.000000
vn 0.500000 0.000000 0.866025
vn 0.500000 0.000000 0.866025
vn 0.866025 0.000000 0.500000
vn 0.866025 0.000000 0.500000
vn 1.000000 0.000000 0.000000
vn 1.000000 0.000000 0.000000
s 1
g traffic_cone
usemtl initialShadingGroup
f 1/1/1 2/2/2 14/15/3 13/14/4
f 2/2/2 3/3/5 15/16/6 14/15/3
f 3/3/5 4/4/7 16/17/8 15/16/6
f 4/4/7 5/5/9 17/18/10 16/17/8
f 5/5/9 6/6/11 18/19/12 17/18/10
f 6/6/11 7/7/13 19/20/14 18/19/12
f 7/7/13 8/8/15 20/21/16 19/20/14
f 8/8/15 9/9/17 21/22/18 20/21/16
f 9/9/17 10/10/19 22/23/20 21/22/18
f 10/10/19 11/11/21 23/24/22 22/23/20
f 11/11/21 12/12/23 24/25/24 23/24/22
f 12/12/23 1/13/1 13/26/4 24/25/24
s 2
f 13/37/25 14/36/26 25/39/27
f 14/36/26 15/35/28 25/39/27
f 15/35/28 16/34/29 25/39/27
f 16/34/29 17/33/30 25/39/27
f 17/33/30 18/32/31 25/39/27
f 18/32/31 19/31/32 25/39/27
f 19/31/32 20/30/33 25/39/27
f 20/30/33 21/29/34 25/39/27
f 21/29/34 22/28/35 25/39/27
f 22/28/35 23/27/36 25/39/27
f 23/27/36 24/38/37 25/39/27
f 24/38/37 13/37/25 25/39/27
s 3
f 2/40/38 1/41/39 26/42/40 27/43/41
f 3/44/42 2/40/38 27/43/41 28/45/43
f 4/46/44 3/44/42 28/45/43 29/47/45
f 5/48/46 4/46/44 29/47/45 30/49/47
f 6/50/48 5/48/46 30/49/47 31/51/49
f 7/52/50 6/50/48 31/51/49 32/53/51
f 8/54/52 7/52/50 32/53/51 33/55/53
f 9/56/54 8/54/52 33/55/53 34/57/55
f 10/58/56 9/56/54 34/57/55 35/59/57
f 11/60/58 10/58/56 35/59/57 36/61/59
f 12/62/60 11/60/58 36/61/59 37/63/61
f 1/41/39 12/62/60 37/63/61 26/42/40
s 4
f 27/87/62 26/64/63 38/65/64 39/88/65
f 28/86/66 27/87/62 39/88/65 40/89/67
f 29/68/68 28/66/66 40/67/67 41/69/69
f 30/70/70 29/68/68 41/69/69 42/71/71
f 31/72/72 30/70/70 42/71/71 43/73/73
f 32/74/74 31/72/72 43/73/73 44/75/75
f 33/76/76 32/74/74 44/75/75 45/77/77
f 34/78/78 33/76/76 45/77/77 46/79/79
f 35/80/80 34/78/78 46/79/79 47/81/81
f 36/82/82 35/80/80 47/81/81 48/83/83
f 37/84/84 36/82/82 48/83/83 49/85/85
f 26/64/63 37/84/84 49/85/85 38/65/64
