<svg xmlns="http://www.w3.org/2000/svg" xmlns:xlink="http://www.w3.org/1999/xlink" width="1500" zoomAndPan="magnify" viewBox="0 0 1125 225" height="300" preserveAspectRatio="xMidYMid meet" version="1.0"><defs><g/><clipPath id="08e92d5165"><path d="M 171.199219 30.3125 L 1112.449219 30.3125 L 1112.449219 196.8125 L 171.199219 196.8125 Z M 171.199219 30.3125 " clip-rule="nonzero"/></clipPath><clipPath id="129e170018"><path d="M 14.066406 30.3125 L 146.4375 30.3125 L 146.4375 196.847656 L 14.066406 196.847656 Z M 14.066406 30.3125 " clip-rule="nonzero"/></clipPath><clipPath id="42105d36fc"><path d="M 40.660156 56.816406 L 119.828125 56.816406 L 119.828125 170.402344 L 40.660156 170.402344 Z M 40.660156 56.816406 " clip-rule="nonzero"/></clipPath><clipPath id="6599b86ce8"><path d="M 96.628906 47.511719 L 129.535156 47.511719 L 129.535156 83.566406 L 96.628906 83.566406 Z M 96.628906 47.511719 " clip-rule="nonzero"/></clipPath><clipPath id="17fa1254f4"><path d="M 30.953125 128.1875 L 51.503906 128.1875 L 51.503906 148.105469 L 30.953125 148.105469 Z M 30.953125 128.1875 " clip-rule="nonzero"/></clipPath><clipPath id="c101b0031b"><path d="M 30.953125 91.765625 L 57.554688 91.765625 L 57.554688 116.601562 L 30.953125 116.601562 Z M 30.953125 91.765625 " clip-rule="nonzero"/></clipPath><clipPath id="692c351460"><path d="M 30.953125 47.511719 L 86.046875 47.511719 L 86.046875 92.640625 L 30.953125 92.640625 Z M 30.953125 47.511719 " clip-rule="nonzero"/></clipPath><clipPath id="4004bc880f"><path d="M 50.890625 128.1875 L 70.808594 128.1875 L 70.808594 148.105469 L 50.890625 148.105469 Z M 50.890625 128.1875 " clip-rule="nonzero"/></clipPath><clipPath id="40275550fe"><path d="M 70.445312 128.1875 L 90.363281 128.1875 L 90.363281 148.105469 L 70.445312 148.105469 Z M 70.445312 128.1875 " clip-rule="nonzero"/></clipPath><clipPath id="9d62464b7d"><path d="M 109.417969 128.1875 L 129.335938 128.1875 L 129.335938 148.105469 L 109.417969 148.105469 Z M 109.417969 128.1875 " clip-rule="nonzero"/></clipPath><clipPath id="9c9addfc6c"><path d="M 109.417969 108.378906 L 129.335938 108.378906 L 129.335938 128.296875 L 109.417969 128.296875 Z M 109.417969 108.378906 " clip-rule="nonzero"/></clipPath><clipPath id="a3503695c0"><path d="M 93.132812 83.527344 L 113.050781 83.527344 L 113.050781 101.804688 L 93.132812 101.804688 Z M 93.132812 83.527344 " clip-rule="nonzero"/></clipPath><clipPath id="3005756f3e"><path d="M 70.445312 108.253906 L 90.363281 108.253906 L 90.363281 128.171875 L 70.445312 128.171875 Z M 70.445312 108.253906 " clip-rule="nonzero"/></clipPath><clipPath id="d843fe4d34"><path d="M 90.378906 148.121094 L 109.417969 148.121094 L 109.417969 168.042969 L 90.378906 168.042969 Z M 90.378906 148.121094 " clip-rule="nonzero"/></clipPath><clipPath id="772e109ee5"><path d="M 109.417969 159.75 L 129.335938 159.75 L 129.335938 179.667969 L 109.417969 179.667969 Z M 109.417969 159.75 " clip-rule="nonzero"/></clipPath><clipPath id="414a68c83e"><path d="M 50.890625 148.121094 L 70.429688 148.121094 L 70.429688 168.042969 L 50.890625 168.042969 Z M 50.890625 148.121094 " clip-rule="nonzero"/></clipPath><clipPath id="ed9276e965"><path d="M 70.445312 159.75 L 90.363281 159.75 L 90.363281 179.667969 L 70.445312 179.667969 Z M 70.445312 159.75 " clip-rule="nonzero"/></clipPath><clipPath id="6b67971bdd"><path d="M 30.953125 159.75 L 50.871094 159.75 L 50.871094 179.667969 L 30.953125 179.667969 Z M 30.953125 159.75 " clip-rule="nonzero"/></clipPath></defs><g clip-path="url(#08e92d5165)"><path fill="#000000" d="M 1112.429688 30.3125 L 1112.429688 196.8125 L 171.21875 196.8125 L 171.21875 30.3125 L 1112.429688 30.3125 " fill-opacity="1" fill-rule="nonzero"/></g><g fill="#ffffff" fill-opacity="1"><g transform="translate(190.703723, 169.898313)"><g><path d="M 95.796875 -113.875 L 95.796875 -40.4375 C 95.796875 -26.457031 92.019531 -15.875 84.46875 -8.6875 C 76.925781 -1.507812 65.882812 2.078125 51.34375 2.078125 C 36.800781 2.078125 25.757812 -1.507812 18.21875 -8.6875 C 10.675781 -15.875 6.90625 -26.457031 6.90625 -40.4375 L 6.90625 -113.875 L 32.84375 -113.875 L 32.84375 -48.03125 C 32.84375 -38.832031 34.289062 -32.4375 37.1875 -28.84375 C 40.09375 -25.257812 44.8125 -23.46875 51.34375 -23.46875 C 57.875 -23.46875 62.585938 -25.257812 65.484375 -28.84375 C 68.390625 -32.4375 69.84375 -38.832031 69.84375 -48.03125 L 69.84375 -113.875 Z M 95.796875 -113.875 "/></g></g></g><g fill="#ffffff" fill-opacity="1"><g transform="translate(293.382301, 169.898313)"><g><path d="M 34.234375 -70.671875 L 34.234375 0 L 8.28125 0 L 8.28125 -113.875 L 34.234375 -113.875 L 79.5 -43.203125 L 79.78125 -43.203125 L 79.78125 -113.875 L 105.734375 -113.875 L 105.734375 0 L 79.78125 0 L 34.5 -70.671875 Z M 34.234375 -70.671875 "/></g></g></g><g fill="#ffffff" fill-opacity="1"><g transform="translate(407.377594, 169.898313)"><g><path d="M 50.25 -115.953125 C 56.40625 -115.953125 62.425781 -115.050781 68.3125 -113.25 C 74.207031 -111.457031 78.582031 -109.6875 81.4375 -107.9375 L 85.578125 -105.1875 L 75.09375 -84.46875 C 74.257812 -85.019531 73.109375 -85.734375 71.640625 -86.609375 C 70.171875 -87.484375 67.410156 -88.65625 63.359375 -90.125 C 59.304688 -91.601562 55.53125 -92.34375 52.03125 -92.34375 C 47.707031 -92.34375 44.375 -91.421875 42.03125 -89.578125 C 39.6875 -87.742188 38.515625 -85.257812 38.515625 -82.125 C 38.515625 -80.5625 39.066406 -79.113281 40.171875 -77.78125 C 41.273438 -76.445312 43.160156 -75.019531 45.828125 -73.5 C 48.492188 -71.976562 50.835938 -70.757812 52.859375 -69.84375 C 54.890625 -68.925781 58.019531 -67.546875 62.25 -65.703125 C 69.613281 -62.578125 75.894531 -58.320312 81.09375 -52.9375 C 86.289062 -47.550781 88.890625 -41.453125 88.890625 -34.640625 C 88.890625 -28.109375 87.71875 -22.40625 85.375 -17.53125 C 83.03125 -12.65625 79.804688 -8.835938 75.703125 -6.078125 C 71.609375 -3.316406 67.078125 -1.269531 62.109375 0.0625 C 57.140625 1.40625 51.757812 2.078125 45.96875 2.078125 C 41 2.078125 36.117188 1.566406 31.328125 0.546875 C 26.546875 -0.460938 22.546875 -1.722656 19.328125 -3.234375 C 16.109375 -4.753906 13.207031 -6.25 10.625 -7.71875 C 8.050781 -9.195312 6.164062 -10.441406 4.96875 -11.453125 L 3.171875 -12.96875 L 16.15625 -34.78125 C 17.257812 -33.863281 18.773438 -32.691406 20.703125 -31.265625 C 22.640625 -29.835938 26.066406 -27.925781 30.984375 -25.53125 C 35.910156 -23.144531 40.257812 -21.953125 44.03125 -21.953125 C 54.976562 -21.953125 60.453125 -25.675781 60.453125 -33.125 C 60.453125 -34.6875 60.0625 -36.132812 59.28125 -37.46875 C 58.5 -38.8125 57.117188 -40.148438 55.140625 -41.484375 C 53.160156 -42.816406 51.410156 -43.875 49.890625 -44.65625 C 48.378906 -45.4375 45.894531 -46.628906 42.4375 -48.234375 C 38.988281 -49.847656 36.4375 -51.070312 34.78125 -51.90625 C 27.882812 -55.300781 22.546875 -59.550781 18.765625 -64.65625 C 14.992188 -69.769531 13.109375 -75.269531 13.109375 -81.15625 C 13.109375 -91.375 16.878906 -99.726562 24.421875 -106.21875 C 31.972656 -112.707031 40.582031 -115.953125 50.25 -115.953125 Z M 50.25 -115.953125 "/></g></g></g><g fill="#ffffff" fill-opacity="1"><g transform="translate(500.119526, 169.898313)"><g><path d="M 73.4375 -113.875 L 73.4375 -91.09375 L 34.234375 -91.09375 L 34.234375 -68.46875 L 71.78125 -68.46875 L 71.78125 -45.6875 L 34.234375 -45.6875 L 34.234375 -22.78125 L 73.4375 -22.78125 L 73.4375 0 L 8.28125 0 L 8.28125 -113.875 Z M 73.4375 -113.875 "/></g></g></g><g fill="#ffffff" fill-opacity="1"><g transform="translate(580.164629, 169.898313)"><g><path d="M 34.234375 -113.875 L 34.234375 -22.78125 L 73.4375 -22.78125 L 73.4375 0 L 8.28125 0 L 8.28125 -113.875 Z M 34.234375 -113.875 "/></g></g></g><g fill="#ffffff" fill-opacity="1"><g transform="translate(658.139606, 169.898313)"><g><path d="M 34.234375 -113.875 L 34.234375 -22.78125 L 73.4375 -22.78125 L 73.4375 0 L 8.28125 0 L 8.28125 -113.875 Z M 34.234375 -113.875 "/></g></g></g><g fill="#ffffff" fill-opacity="1"><g transform="translate(736.114584, 169.898313)"><g><path d="M 66.109375 -113.875 L 112.078125 0 L 84.203125 0 L 75.78125 -22.78125 L 32.4375 -22.78125 L 24.015625 0 L -3.859375 0 L 42.09375 -113.875 Z M 66.9375 -45.546875 L 54.25 -78.671875 L 53.96875 -78.671875 L 41.265625 -45.546875 Z M 66.9375 -45.546875 "/></g></g></g><g fill="#ffffff" fill-opacity="1"><g transform="translate(844.313525, 169.898313)"><g><path d="M 8.28125 -113.875 L 43.625 -113.875 C 54.289062 -113.875 62.796875 -111.59375 69.140625 -107.03125 C 75.492188 -102.476562 78.671875 -95.097656 78.671875 -84.890625 C 78.671875 -73.472656 73.929688 -65.328125 64.453125 -60.453125 C 80.648438 -57.597656 88.75 -48.03125 88.75 -31.75 C 88.75 -22.175781 85.4375 -14.488281 78.8125 -8.6875 C 72.1875 -2.894531 63.078125 0 51.484375 0 L 8.28125 0 Z M 34.234375 -69.296875 L 36.296875 -69.296875 C 42.097656 -69.296875 46.425781 -70.304688 49.28125 -72.328125 C 52.132812 -74.347656 53.5625 -77.660156 53.5625 -82.265625 C 53.5625 -89.992188 47.804688 -93.859375 36.296875 -93.859375 L 34.234375 -93.859375 Z M 34.234375 -20.015625 L 42.375 -20.015625 C 55.070312 -20.015625 61.421875 -24.25 61.421875 -32.71875 C 61.421875 -37.78125 59.832031 -41.414062 56.65625 -43.625 C 53.488281 -45.832031 48.726562 -46.9375 42.375 -46.9375 L 34.234375 -46.9375 Z M 34.234375 -20.015625 "/></g></g></g><g fill="#ffffff" fill-opacity="1"><g transform="translate(936.227448, 169.898313)"><g><path d="M 34.234375 -113.875 L 34.234375 -22.78125 L 73.4375 -22.78125 L 73.4375 0 L 8.28125 0 L 8.28125 -113.875 Z M 34.234375 -113.875 "/></g></g></g><g fill="#ffffff" fill-opacity="1"><g transform="translate(1014.202469, 169.898313)"><g><path d="M 73.4375 -113.875 L 73.4375 -91.09375 L 34.234375 -91.09375 L 34.234375 -68.46875 L 71.78125 -68.46875 L 71.78125 -45.6875 L 34.234375 -45.6875 L 34.234375 -22.78125 L 73.4375 -22.78125 L 73.4375 0 L 8.28125 0 L 8.28125 -113.875 Z M 73.4375 -113.875 "/></g></g></g><g clip-path="url(#129e170018)"><path fill="#000000" d="M 14.066406 30.3125 L 146.433594 30.3125 L 146.433594 196.847656 L 14.066406 196.847656 L 14.066406 30.3125 " fill-opacity="1" fill-rule="nonzero"/></g><g clip-path="url(#42105d36fc)"><path fill="#ffffff" d="M 40.660156 56.816406 L 119.828125 56.816406 L 119.828125 170.402344 L 40.660156 170.402344 L 40.660156 56.816406 " fill-opacity="1" fill-rule="nonzero"/></g><g clip-path="url(#6599b86ce8)"><path fill="#fec900" d="M 96.628906 47.511719 L 129.535156 47.511719 L 129.535156 83.566406 L 96.628906 83.566406 L 96.628906 47.511719 " fill-opacity="1" fill-rule="nonzero"/></g><g clip-path="url(#17fa1254f4)"><path fill="#f46c3d" d="M 30.953125 128.1875 L 51.503906 128.1875 L 51.503906 148.105469 L 30.953125 148.105469 L 30.953125 128.1875 " fill-opacity="1" fill-rule="nonzero"/></g><g clip-path="url(#c101b0031b)"><path fill="#00d17f" d="M 30.953125 91.765625 L 57.554688 91.765625 L 57.554688 116.601562 L 30.953125 116.601562 L 30.953125 91.765625 " fill-opacity="1" fill-rule="nonzero"/></g><g clip-path="url(#692c351460)"><path fill="#2265f6" d="M 30.953125 47.511719 L 86.042969 47.511719 L 86.042969 92.640625 L 30.953125 92.640625 L 30.953125 47.511719 " fill-opacity="1" fill-rule="nonzero"/></g><g clip-path="url(#4004bc880f)"><path fill="#2265f6" d="M 50.890625 128.1875 L 70.808594 128.1875 L 70.808594 148.105469 L 50.890625 148.105469 L 50.890625 128.1875 " fill-opacity="1" fill-rule="nonzero"/></g><g clip-path="url(#40275550fe)"><path fill="#fec900" d="M 70.445312 128.1875 L 90.363281 128.1875 L 90.363281 148.105469 L 70.445312 148.105469 L 70.445312 128.1875 " fill-opacity="1" fill-rule="nonzero"/></g><g clip-path="url(#9d62464b7d)"><path fill="#00d17f" d="M 109.417969 128.1875 L 129.335938 128.1875 L 129.335938 148.105469 L 109.417969 148.105469 L 109.417969 128.1875 " fill-opacity="1" fill-rule="nonzero"/></g><g clip-path="url(#9c9addfc6c)"><path fill="#fec900" d="M 109.417969 108.378906 L 129.335938 108.378906 L 129.335938 128.296875 L 109.417969 128.296875 L 109.417969 108.378906 " fill-opacity="1" fill-rule="nonzero"/></g><g clip-path="url(#a3503695c0)"><path fill="#2265f6" d="M 93.132812 83.527344 L 113.050781 83.527344 L 113.050781 101.804688 L 93.132812 101.804688 L 93.132812 83.527344 " fill-opacity="1" fill-rule="nonzero"/></g><g clip-path="url(#3005756f3e)"><path fill="#2265f6" d="M 70.445312 108.253906 L 90.363281 108.253906 L 90.363281 128.171875 L 70.445312 128.171875 L 70.445312 108.253906 " fill-opacity="1" fill-rule="nonzero"/></g><g clip-path="url(#d843fe4d34)"><path fill="#fec900" d="M 90.382812 148.121094 L 109.414062 148.121094 L 109.414062 168.042969 L 90.382812 168.042969 L 90.382812 148.121094 " fill-opacity="1" fill-rule="nonzero"/></g><g clip-path="url(#772e109ee5)"><path fill="#f46c3d" d="M 109.417969 159.75 L 129.335938 159.75 L 129.335938 179.667969 L 109.417969 179.667969 L 109.417969 159.75 " fill-opacity="1" fill-rule="nonzero"/></g><g clip-path="url(#414a68c83e)"><path fill="#00d17f" d="M 50.890625 148.125 L 70.429688 148.125 L 70.429688 168.042969 L 50.890625 168.042969 L 50.890625 148.125 " fill-opacity="1" fill-rule="nonzero"/></g><g clip-path="url(#ed9276e965)"><path fill="#2265f6" d="M 70.445312 159.75 L 90.363281 159.75 L 90.363281 179.667969 L 70.445312 179.667969 L 70.445312 159.75 " fill-opacity="1" fill-rule="nonzero"/></g><g clip-path="url(#6b67971bdd)"><path fill="#2265f6" d="M 30.953125 159.75 L 50.871094 159.75 L 50.871094 179.667969 L 30.953125 179.667969 L 30.953125 159.75 " fill-opacity="1" fill-rule="nonzero"/></g></svg>