<?xml version="1.0" encoding="iso-8859-1"?>
<!-- Generator: Adobe Illustrator 18.0.0, SVG Export Plug-In . SVG Version: 6.00 Build 0)  -->
<!DOCTYPE svg PUBLIC "-//W3C//DTD SVG 1.1//EN" "http://www.w3.org/Graphics/SVG/1.1/DTD/svg11.dtd">
<svg version="1.1" id="Capa_1" xmlns="http://www.w3.org/2000/svg" xmlns:xlink="http://www.w3.org/1999/xlink" x="0px" y="0px"
	 viewBox="0 0 418.32 418.32" style="enable-background:new 0 0 418.32 418.32;" xml:space="preserve">
<g>
	<path d="M163.896,152.573h90.529c4.121,0,7.474-3.353,7.474-7.474V89.395c0-4.121-3.353-7.474-7.474-7.474h-90.529
		c-4.121,0-7.474,3.353-7.474,7.474V145.1C156.422,149.221,159.774,152.573,163.896,152.573z M243.059,86.922h11.366
		c1.364,0,2.474,1.11,2.474,2.474v3.088h-13.839V86.922z M243.059,97.483h13.839v6.132h-13.839V97.483z M243.059,108.615h13.839
		v6.132h-13.839V108.615z M243.059,119.747h13.839v6.132h-13.839V119.747z M243.059,130.88h13.839v6.132h-13.839V130.88z
		 M243.059,142.012h13.839v3.088c0,1.364-1.11,2.474-2.474,2.474h-11.366V142.012z M180.261,86.922h57.797v5.562h-57.797V86.922z
		 M180.261,97.483h57.797v6.132h-57.797V97.483z M180.261,108.615h57.797v6.132h-57.797V108.615z M180.261,119.747h57.797v6.132
		h-57.797V119.747z M180.261,130.88h57.797v6.132h-57.797V130.88z M180.261,142.012h57.797v5.562h-57.797V142.012z M161.422,89.395
		c0-1.364,1.11-2.474,2.474-2.474h11.366v5.562h-13.839V89.395z M161.422,97.483h13.839v6.132h-13.839V97.483z M161.422,108.615
		h13.839v6.132h-13.839V108.615z M161.422,119.747h13.839v6.132h-13.839V119.747z M161.422,130.88h13.839v6.132h-13.839V130.88z
		 M161.422,142.012h13.839v5.562h-11.366c-1.364,0-2.474-1.11-2.474-2.474V142.012z"/>
	<path d="M354.381,103.044h-59.805v59.805h59.805V103.044z M349.381,157.849h-49.805v-49.805h49.805V157.849z"/>
	<path d="M324.479,147.435c7.989,0,14.489-6.5,14.489-14.488c0-7.989-6.5-14.489-14.489-14.489s-14.489,6.5-14.489,14.489
		C309.99,140.936,316.489,147.435,324.479,147.435z M324.479,123.458c5.232,0,9.489,4.257,9.489,9.489s-4.257,9.488-9.489,9.488
		s-9.489-4.256-9.489-9.488S319.247,123.458,324.479,123.458z"/>
	<path d="M400.623,156.56V88.772H277.434l-0.724-8.11c-0.605-6.767-6.185-11.871-12.979-11.871h-12.11V52.742
		c0-4.372-3.556-7.928-7.928-7.928h-69.068c-4.372,0-7.928,3.556-7.928,7.928v16.049h-12.11c-6.794,0-12.374,5.104-12.979,11.871
		l-0.724,8.11h-28.205H89.628H32.086c-3.527,0-6.397,2.87-6.397,6.397v25.15h-7.992v36.241L0,169.566v148.266l17.697,13.005v42.669
		h382.925v-42.669l17.697-13.005V169.566L400.623,156.56z M17.697,324.631L5,315.301V172.096l12.697-9.331V324.631z M239.633,49.814
		h4.061c1.614,0,2.928,1.313,2.928,2.928v16.049h-6.988V49.814z M224.909,49.814h9.724v18.977h-9.724V49.814z M198.411,49.814
		h21.499v18.977h-21.499V49.814z M183.687,49.814h9.724v18.977h-9.724V49.814z M171.698,52.742c0-1.614,1.313-2.928,2.928-2.928
		h4.061v18.977h-6.988V52.742z M146.59,81.107c0.372-4.17,3.811-7.315,7.998-7.315h12.11h84.923h12.11
		c4.187,0,7.625,3.145,7.998,7.315l7.77,87.019H138.82L146.59,81.107z M209.16,349.519c-41.105,0-74.546-33.441-74.546-74.546
		s33.441-74.546,74.546-74.546s74.546,33.441,74.546,74.546S250.265,349.519,209.16,349.519z M226.31,352.637v7.876H192.01v-7.876
		c5.527,1.22,11.261,1.882,17.149,1.882C215.048,354.519,220.782,353.857,226.31,352.637z M231.31,351.358
		c33.114-9.619,57.396-40.21,57.396-76.385c0-43.862-35.685-79.546-79.546-79.546s-79.546,35.684-79.546,79.546
		c0,36.175,24.282,66.767,57.396,76.385v4.017h-54.497c-3.841,0-6.965-3.125-6.965-6.965v-88.804v-32.68v-30.28
		c0-3.841,3.125-6.965,6.965-6.965h153.293c3.841,0,6.965,3.125,6.965,6.965V348.41c0,3.841-3.125,6.965-6.965,6.965H231.31V351.358
		z M285.807,184.681H132.513c-2.599,0-5.001,0.842-6.965,2.256v-6.846c0-3.841,3.125-6.965,6.965-6.965h0.84h151.613h0.84
		c3.841,0,6.965,3.125,6.965,6.965v6.846C290.807,185.523,288.406,184.681,285.807,184.681z M84.353,93.772h5.276v15.552h-5.276
		V93.772z M70.271,93.772h9.082v15.552h-9.082V93.772z M56.189,93.772h9.082v15.552h-9.082V93.772z M42.107,93.772h9.082v15.552
		h-9.082V93.772z M30.689,95.169c0-0.771,0.626-1.397,1.397-1.397h5.021v15.552h-6.418V95.169z M30.689,114.324h58.939v5.996H30.689
		V114.324z M22.697,125.32h2.992h66.439h2.5V93.772h18.052h27.759l-6.639,74.353h-1.287H22.697V125.32z M22.697,173.125h100.106
		c-1.101,1.53-1.845,3.327-2.122,5.276H22.697V173.125z M395.623,368.506H22.697V183.401h97.851v43.525H94.767v18.367l25.781,11.988
		v91.129c0,6.598,5.368,11.965,11.965,11.965h54.497v5.138h44.299v-5.138h54.497c6.598,0,11.965-5.368,11.965-11.965V183.401h97.851
		V368.506z M120.548,231.927v19.841l-20.781-9.664v-10.177H120.548z M395.623,178.401h-97.984c-0.277-1.949-1.022-3.746-2.122-5.276
		h100.106V178.401z M395.623,168.125H285.807h-1.287l-6.639-74.353h117.742V168.125z M413.32,315.301l-12.697,9.33V162.765
		l12.697,9.331V315.301z"/>
	<path d="M209.16,247.662c-15.06,0-27.311,12.251-27.311,27.311s12.251,27.312,27.311,27.312s27.312-12.252,27.312-27.312
		S224.219,247.662,209.16,247.662z M209.16,297.284c-12.302,0-22.311-10.009-22.311-22.312c0-12.302,10.009-22.311,22.311-22.311
		c12.303,0,22.312,10.009,22.312,22.311C231.471,287.276,221.462,297.284,209.16,297.284z"/>
	<path d="M216.682,265.694c0.824,0,1.631-0.407,2.108-1.153c0.744-1.163,0.404-2.709-0.758-3.454
		c-2.648-1.694-5.716-2.59-8.872-2.59c-1.381,0-2.5,1.119-2.5,2.5s1.119,2.5,2.5,2.5c2.199,0,4.334,0.623,6.177,1.802
		C215.754,265.567,216.22,265.694,216.682,265.694z"/>
	<path d="M221.864,268.623c-1.324,0.39-2.083,1.779-1.693,3.104c0.309,1.048,0.465,2.141,0.465,3.246
		c0,3.687-1.791,7.174-4.791,9.329c-1.122,0.806-1.377,2.368-0.572,3.489c0.489,0.68,1.255,1.042,2.033,1.042
		c0.505,0,1.015-0.152,1.457-0.469c4.304-3.092,6.874-8.097,6.874-13.39c0-1.583-0.225-3.15-0.668-4.657
		C224.578,268.991,223.188,268.232,221.864,268.623z"/>
	<path d="M209.16,234.431c-22.354,0-40.542,18.187-40.542,40.542c0,22.355,18.187,40.542,40.542,40.542
		c22.355,0,40.542-18.187,40.542-40.542C249.702,252.618,231.515,234.431,209.16,234.431z M209.16,310.515
		c-19.598,0-35.542-15.944-35.542-35.542c0-19.598,15.944-35.542,35.542-35.542c19.598,0,35.542,15.944,35.542,35.542
		C244.702,294.571,228.758,310.515,209.16,310.515z"/>
	<path d="M209.16,206.051c-38.003,0-68.922,30.918-68.922,68.922c0,38.004,30.918,68.922,68.922,68.922
		c38.004,0,68.922-30.918,68.922-68.922C278.082,236.969,247.164,206.051,209.16,206.051z M209.16,338.895
		c-35.247,0-63.922-28.675-63.922-63.922c0-35.247,28.675-63.922,63.922-63.922c35.247,0,63.922,28.675,63.922,63.922
		C273.082,310.22,244.407,338.895,209.16,338.895z"/>
</g>
<g>
</g>
<g>
</g>
<g>
</g>
<g>
</g>
<g>
</g>
<g>
</g>
<g>
</g>
<g>
</g>
<g>
</g>
<g>
</g>
<g>
</g>
<g>
</g>
<g>
</g>
<g>
</g>
<g>
</g>
</svg>
